<?xml version="1.0" standalone="no"?>
<!DOCTYPE svg PUBLIC "-//W3C//DTD SVG 20010904//EN"
 "http://www.w3.org/TR/2001/REC-SVG-20010904/DTD/svg10.dtd">
<svg version="1.0" xmlns="http://www.w3.org/2000/svg"
 width="1024.000000pt" height="1024.000000pt" viewBox="0 0 1024.000000 1024.000000"
 preserveAspectRatio="xMidYMid meet">

<g transform="translate(0.000000,1024.000000) scale(0.100000,-0.100000)"
fill="#000000" stroke="none">
<path d="M5936 8509 c-39 -34 -73 -90 -117 -194 -126 -294 -116 -638 27 -940
85 -180 191 -312 461 -572 247 -238 312 -325 364 -493 32 -100 33 -295 4 -450
-27 -144 -28 -437 -2 -558 41 -187 113 -353 226 -522 81 -121 201 -264 250
-297 59 -40 138 -25 195 36 24 25 31 42 34 89 4 56 3 59 -42 117 -26 33 -77
99 -114 147 -154 199 -228 376 -250 603 -10 104 -4 202 28 405 49 321 -4 579
-171 826 -54 81 -178 210 -397 412 -190 176 -301 340 -358 527 -25 80 -28 106
-28 230 0 160 19 239 93 396 23 47 41 101 41 119 0 123 -154 199 -244 119z"/>
<path d="M6993 8305 c-39 -16 -80 -77 -123 -182 -69 -165 -98 -354 -80 -518
28 -264 115 -439 350 -705 293 -331 343 -501 265 -890 -38 -187 -51 -363 -37
-513 21 -225 74 -379 256 -753 130 -266 141 -279 238 -279 88 0 147 54 155
142 4 45 -2 61 -109 274 -167 331 -228 529 -228 743 0 103 12 197 50 411 70
397 -19 697 -300 1006 -229 251 -303 381 -330 580 -20 140 -2 242 75 440 43
110 42 147 -2 200 -47 55 -116 72 -180 44z"/>
<path d="M7780 7542 c-70 -35 -100 -124 -65 -192 8 -16 36 -55 63 -87 308
-374 397 -557 409 -838 7 -168 -4 -234 -76 -458 -83 -257 -86 -275 -86 -477 1
-256 24 -352 162 -678 64 -152 102 -292 103 -377 1 -70 17 -117 54 -153 30
-31 43 -36 93 -40 49 -3 64 0 93 20 58 39 72 78 65 183 -13 194 -37 287 -137
535 -87 213 -118 348 -118 515 0 120 17 209 78 397 62 190 83 313 84 477 0
283 -67 501 -231 753 -84 128 -310 402 -350 423 -40 20 -98 19 -141 -3z"/>
<path d="M1955 4056 c-176 -44 -322 -201 -354 -380 -15 -80 -15 -783 0 -862
32 -175 177 -336 344 -379 53 -13 389 -15 3070 -15 2673 0 3017 2 3070 15 175
46 312 192 351 374 17 81 20 776 4 862 -32 166 -149 306 -309 368 l-66 26
-3030 2 c-2390 1 -3041 -1 -3080 -11z m1625 -811 l0 -515 -763 0 -763 0 -44
23 c-49 24 -84 69 -100 126 -13 48 -13 694 0 743 12 41 50 91 84 111 16 9 190
13 701 17 374 3 726 6 783 8 l102 2 0 -515z m3740 -2 l0 -513 -1715 0 -1715 0
0 513 0 512 1715 0 1715 0 0 -512z m710 492 c35 -18 67 -54 85 -97 13 -31 15
-94 15 -395 0 -327 -2 -362 -19 -398 -10 -22 -29 -50 -42 -62 -50 -45 -88 -53
-264 -53 l-165 0 0 516 0 516 183 -7 c115 -5 191 -12 207 -20z"/>
</g>
</svg>
