<?xml version="1.0" encoding="UTF-8"?>
<svg version="1.1" xmlns="http://www.w3.org/2000/svg" width="1024" height="1024">
<path d="M0 0 C1.4251286 0.00503579 2.85025896 0.00959494 4.27539062 0.01367188 C7.70446493 0.02448818 11.13347032 0.04163239 14.5625 0.0625 C14.5625 0.7225 14.5625 1.3825 14.5625 2.0625 C15.44301025 2.02769531 15.44301025 2.02769531 16.34130859 1.9921875 C62.30176885 0.98463777 110.06237251 29.29208978 142.33984375 60.015625 C144.38621105 62.08974504 144.38621105 62.08974504 146.5625 63.0625 C146.5625 63.7225 146.5625 64.3825 146.5625 65.0625 C147.15780518 65.32804687 147.75311035 65.59359375 148.36645508 65.8671875 C150.6267319 67.09746158 151.96866269 68.30031888 153.69921875 70.1875 C154.2720459 70.80665283 154.84487305 71.42580566 155.43505859 72.0637207 C156.03398926 72.72331787 156.63291992 73.38291504 157.25 74.0625 C157.87213379 74.73949951 158.49426758 75.41649902 159.13525391 76.11401367 C160.94978494 78.09194184 162.75634706 80.07692446 164.5625 82.0625 C165.43261719 83.00738281 166.30273438 83.95226562 167.19921875 84.92578125 C181.5625 100.64267016 181.5625 100.64267016 181.5625 104.0625 C185.141205 102.59955686 186.82420173 100.75854392 189.125 97.6875 C193.0903338 92.56807651 197.34326809 87.84895682 201.75390625 83.1171875 C203.84098765 80.87269634 205.85448371 78.57538172 207.85546875 76.25390625 C217.73857215 64.91744483 228.60158283 54.18916109 240.5625 45.0625 C241.56152344 44.258125 242.56054688 43.45375 243.58984375 42.625 C288.50297896 6.65593388 343.87898604 -0.63744748 399.5625 0.0625 C399.5625 0.7225 399.5625 1.3825 399.5625 2.0625 C400.69558594 2.08376953 400.69558594 2.08376953 401.8515625 2.10546875 C445.69415621 4.00497222 488.2963894 27.3353987 519.01416016 57.54492188 C520.37159207 58.87538494 521.75236457 60.1819477 523.13671875 61.484375 C538.63914596 76.31043104 550.64730063 95.67909973 559.5625 115.0625 C559.86494629 115.69833008 560.16739258 116.33416016 560.47900391 116.98925781 C585.92782595 170.49286127 584.49653192 235.21543055 565.7890625 290.41796875 C551.00276415 331.98310265 526.27594651 367.05861522 497.90234375 400.29296875 C496.42588628 402.04056199 494.97631919 403.81157254 493.56640625 405.61328125 C491.37995475 408.28561086 489.03473207 410.65216476 486.5625 413.0625 C478.0275124 421.32676064 478.0275124 421.32676064 470.0625 430.125 C467.72650002 432.86979997 465.40627003 434.87498459 462.5625 437.0625 C460.87926777 438.7149038 459.21723564 440.38188869 457.5625 442.0625 C454.79482191 444.85730864 452.02272754 447.64770202 449.25 450.4375 C448.52876953 451.16710937 447.80753906 451.89671875 447.06445312 452.6484375 C442.93811843 456.79327594 438.71666224 460.7431812 434.28344727 464.55761719 C431.69895438 466.81762771 429.36345942 469.28474062 427.0078125 471.77734375 C425.5625 473.0625 425.5625 473.0625 423.5625 473.0625 C423.5625 473.7225 423.5625 474.3825 423.5625 475.0625 C422.33984375 476.296875 422.33984375 476.296875 420.5 477.8125 C416.39052185 481.30700343 412.43423098 484.93643685 408.5 488.625 C407.85683838 489.22715332 407.21367676 489.82930664 406.55102539 490.44970703 C405.22001651 491.69639194 403.88937289 492.94346692 402.55908203 494.19091797 C392.60098008 503.52557309 382.60834308 512.82233857 372.5625 522.0625 C371.78712891 522.77599609 371.78712891 522.77599609 370.99609375 523.50390625 C364.94036877 529.07395905 358.86000111 534.61389484 352.71875 540.08984375 C351.2336828 541.44846501 349.79764237 542.86199792 348.40625 544.31640625 C346.5625 546.0625 346.5625 546.0625 344.5625 546.0625 C344.5625 546.7225 344.5625 547.3825 344.5625 548.0625 C343.26953125 549.3671875 343.26953125 549.3671875 341.375 550.9375 C337.55628208 554.18172053 333.85737594 557.5276518 330.1875 560.9375 C326.3802637 564.46777714 322.55973313 567.97830507 318.6875 571.4375 C310.49984764 578.77997535 302.51848409 586.34901397 294.5 593.875 C286.22298249 601.64327406 277.9207087 609.38162635 269.5625 617.0625 C269.04703613 617.53671387 268.53157227 618.01092773 268.00048828 618.49951172 C249.42747819 635.5834236 249.42747819 635.5834236 241.05859375 642.5546875 C239.30322854 644.10077955 239.30322854 644.10077955 238.5625 647.0625 C236.56590516 648.06928153 234.56538736 649.06829567 232.5625 650.0625 C230.02395422 652.27736916 230.02395422 652.27736916 227.6875 654.8125 C224.19546094 658.41350313 220.66300539 661.80732087 216.84765625 665.05859375 C214.94435094 666.7276461 213.09078308 668.42742334 211.24609375 670.16015625 C210.36691284 670.98410889 210.36691284 670.98410889 209.4699707 671.82470703 C208.29419097 672.9297886 207.12205879 674.0387657 205.95385742 675.15185547 C201.78329278 679.0625 201.78329278 679.0625 199.5625 679.0625 C199.5625 679.7225 199.5625 680.3825 199.5625 681.0625 C197.69921875 682.75390625 197.69921875 682.75390625 195.25 684.625 C194.44949219 685.24503906 193.64898438 685.86507812 192.82421875 686.50390625 C189.49358006 688.79911322 186.70770843 689.25949084 182.75 689.375 C181.50283203 689.43107422 181.50283203 689.43107422 180.23046875 689.48828125 C174.12232486 688.5134823 169.65058023 683.49193094 165.3125 679.375 C164.16323919 678.29896758 163.01349532 677.22345088 161.86328125 676.1484375 C161.02144287 675.35904785 161.02144287 675.35904785 160.16259766 674.55371094 C157.96690766 672.50743774 155.73642781 670.50158482 153.5 668.5 C146.13498694 661.89524635 138.86162275 655.19066388 131.59887695 648.47387695 C127.27661998 644.47682139 122.94626314 640.49228119 118.5625 636.5625 C113.06893145 631.63692562 107.65475424 626.62728122 102.24023438 621.61523438 C99.49532499 619.07483512 96.747825 616.53724479 94 614 C93.45851318 613.49976318 92.91702637 612.99952637 92.35913086 612.48413086 C88.85435866 609.24835032 85.33577338 606.02814788 81.8125 602.8125 C76.80949015 598.23414881 71.86880931 593.59290172 66.9375 588.9375 C57.02712409 579.20992788 57.02712409 579.20992788 46.30078125 570.45703125 C45.72714844 569.99683594 45.15351563 569.53664063 44.5625 569.0625 C44.5625 568.4025 44.5625 567.7425 44.5625 567.0625 C43.96953125 566.79824219 43.3765625 566.53398438 42.765625 566.26171875 C40.48220946 565.01879575 39.08823277 563.75848354 37.3125 561.875 C34.82234768 559.3050351 32.27776802 556.89363126 29.5625 554.5625 C26.36637101 551.80891194 23.38988155 548.91539662 20.43676758 545.90551758 C18.63249067 544.13132371 16.77420309 542.47317338 14.85546875 540.82421875 C10.59002118 537.11534692 6.47464837 533.26532694 2.375 529.375 C-2.90574703 524.38118708 -8.20633749 519.41285021 -13.5625 514.5 C-17.41344072 510.96618185 -21.17246661 507.36857108 -24.83203125 503.63671875 C-27.26747472 501.24868051 -29.86425815 499.0555993 -32.44921875 496.83203125 C-35.05178754 494.51579616 -37.47813448 492.05120008 -39.89453125 489.54296875 C-41.57457372 487.84414495 -41.57457372 487.84414495 -44.4375 486.0625 C-44.4375 485.4025 -44.4375 484.7425 -44.4375 484.0625 C-44.99953125 483.82917969 -45.5615625 483.59585937 -46.140625 483.35546875 C-49.00484142 481.74312924 -50.91002021 479.7431438 -53.1875 477.375 C-56.16406345 474.33325633 -59.13146244 471.380335 -62.375 468.625 C-66.78673496 464.85757521 -70.800987 460.71655838 -74.87109375 456.58984375 C-76.89452683 454.59720873 -78.9081435 452.76614809 -81.125 451 C-81.888125 450.360625 -82.65125 449.72125 -83.4375 449.0625 C-83.4375 448.4025 -83.4375 447.7425 -83.4375 447.0625 C-84.0975 447.0625 -84.7575 447.0625 -85.4375 447.0625 C-85.4375 446.4025 -85.4375 445.7425 -85.4375 445.0625 C-85.97213867 444.85238281 -86.50677734 444.64226562 -87.05761719 444.42578125 C-90.3620415 442.53288985 -92.85344503 439.93184474 -95.515625 437.25 C-96.08706238 436.68047607 -96.65849976 436.11095215 -97.24725342 435.52416992 C-98.44984789 434.3229332 -99.64993334 433.11918003 -100.84765625 431.91308594 C-102.68790717 430.06209045 -104.53862633 428.22204554 -106.390625 426.3828125 C-107.55793384 425.21418276 -108.72462251 424.04493316 -109.890625 422.875 C-110.44679504 422.32287842 -111.00296509 421.77075684 -111.57598877 421.2019043 C-115.4375 417.29243635 -115.4375 417.29243635 -115.4375 415.0625 C-116.0975 415.0625 -116.7575 415.0625 -117.4375 415.0625 C-117.4375 414.4025 -117.4375 413.7425 -117.4375 413.0625 C-118.4275 412.7325 -119.4175 412.4025 -120.4375 412.0625 C-121.8046875 410.7421875 -121.8046875 410.7421875 -123.3125 408.9375 C-123.92609375 408.21304687 -124.5396875 407.48859375 -125.171875 406.7421875 C-125.91953125 405.85789062 -126.6671875 404.97359375 -127.4375 404.0625 C-128.39906383 402.95921061 -129.36276011 401.85777755 -130.328125 400.7578125 C-133.72578702 396.88307432 -137.08953333 392.98023181 -140.4375 389.0625 C-140.97181641 388.43843262 -141.50613281 387.81436523 -142.05664062 387.17138672 C-153.73035323 373.44289917 -164.12564114 358.65613736 -173.17797852 343.07177734 C-174.40840243 340.94255621 -174.40840243 340.94255621 -176.4375 339.0625 C-177.673673 336.76505618 -178.85249688 334.46625393 -180 332.125 C-180.34788574 331.41915771 -180.69577148 330.71331543 -181.05419922 329.98608398 C-181.8001346 328.46718177 -182.5435369 326.94703346 -183.28466797 325.42578125 C-184.05039712 323.8560527 -184.82022874 322.28831844 -185.59423828 320.72265625 C-190.70199798 310.38239998 -195.21098862 300.05407706 -198.77880859 289.08154297 C-199.41460963 287.13266434 -200.07439878 285.19336637 -200.73828125 283.25390625 C-220.16379722 225.26795869 -215.07828413 161.57438634 -188.04296875 107.015625 C-184.41615477 99.9543794 -180.13520863 93.4498477 -175.4375 87.0625 C-175.01968262 86.49063965 -174.60186523 85.9187793 -174.17138672 85.32958984 C-169.28890024 78.69624634 -164.11094545 72.39397243 -158.5234375 66.3359375 C-156.5852745 64.2235576 -154.72726729 62.06251928 -152.875 59.875 C-149.37104188 55.86704791 -145.51437172 52.47390297 -141.4375 49.0625 C-140.56351562 48.30066406 -139.68953125 47.53882813 -138.7890625 46.75390625 C-99.7206597 13.18440733 -50.71607607 -0.31836457 0 0 Z M-110.4375 82.0625 C-111.29988281 82.79082031 -112.16226563 83.51914062 -113.05078125 84.26953125 C-116.33088976 87.07383891 -116.33088976 87.07383891 -119.4375 90.0625 C-119.4375 90.7225 -119.4375 91.3825 -119.4375 92.0625 C-120.0975 92.0625 -120.7575 92.0625 -121.4375 92.0625 C-149.75172658 117.83353257 -164.3107817 160.27245858 -166.30859375 197.55078125 C-166.35113281 198.70964844 -166.39367187 199.86851562 -166.4375 201.0625 C-166.49035156 202.29355469 -166.54320312 203.52460938 -166.59765625 204.79296875 C-167.47317453 235.02828175 -161.4679575 269.07724037 -147.4375 296.0625 C-146.4475 296.0625 -145.4575 296.0625 -144.4375 296.0625 C-144.78361328 296.83400391 -144.78361328 296.83400391 -145.13671875 297.62109375 C-145.59062037 301.30536015 -143.91494202 303.94736155 -142.25 307.125 C-141.89413818 307.81819336 -141.53827637 308.51138672 -141.17163086 309.22558594 C-134.1468532 322.59565907 -125.76672761 335.20059548 -116.4375 347.0625 C-115.55372862 348.2128056 -114.67096305 349.36388447 -113.7890625 350.515625 C-108.68517903 357.14302893 -103.40415147 363.47224298 -97.7109375 369.60546875 C-95.69565584 371.78349653 -93.74477564 373.99859286 -91.8125 376.25 C-88.81890153 379.70144294 -85.62425307 382.90000427 -82.36328125 386.09765625 C-80.48657639 388.01242815 -78.77047668 389.99713647 -77.0625 392.0625 C-76.19625 393.0525 -75.33 394.0425 -74.4375 395.0625 C-73.7775 395.0625 -73.1175 395.0625 -72.4375 395.0625 C-72.23125 395.619375 -72.025 396.17625 -71.8125 396.75 C-70.46903247 399.00946811 -69.38592298 400.0623656 -67.375 401.6875 C-64.4375 404.0625 -64.4375 404.0625 -63.4375 406.0625 C-62.7775 406.0625 -62.1175 406.0625 -61.4375 406.0625 C-61.4375 406.7225 -61.4375 407.3825 -61.4375 408.0625 C-60.15518919 409.35838047 -60.15518919 409.35838047 -58.375 410.75 C-53.31381753 415.03531493 -48.70843812 419.73577362 -44.07006836 424.4675293 C-40.33739339 428.250413 -36.49285658 431.81576209 -32.46826172 435.28564453 C-28.25547922 438.9717026 -24.23317745 442.86756721 -20.17382812 446.72070312 C-16.6989177 450.00163395 -13.1739057 453.07965511 -9.4375 456.0625 C-7.74837639 457.70640298 -6.08234939 459.37429799 -4.4375 461.0625 C0.98289021 466.55581026 6.36769524 471.99946584 12.234375 477.01953125 C15.40531652 479.80208564 18.48182526 482.68070576 21.5625 485.5625 C22.19599365 486.15409912 22.8294873 486.74569824 23.48217773 487.35522461 C27.0102139 490.65556079 30.52185484 493.97218972 34.01953125 497.3046875 C34.74720703 497.99498047 35.47488281 498.68527344 36.22460938 499.39648438 C37.64006287 500.73994387 39.05163783 502.08750354 40.45898438 503.43945312 C41.09771484 504.04466797 41.73644531 504.64988281 42.39453125 505.2734375 C42.95889893 505.81274902 43.5232666 506.35206055 44.10473633 506.90771484 C45.51383024 508.26948055 45.51383024 508.26948055 47.5625 508.0625 C47.5625 508.7225 47.5625 509.3825 47.5625 510.0625 C49.0928619 511.63008704 49.0928619 511.63008704 51.08984375 513.24609375 C55.21877424 516.7580889 59.18475066 520.40387474 63.125 524.125 C64.52202681 525.43891757 65.91916502 526.7527167 67.31640625 528.06640625 C68.37045654 529.05858154 68.37045654 529.05858154 69.44580078 530.07080078 C80.75614008 540.7638694 80.75614008 540.7638694 92.37109375 551.12109375 C98.90970427 556.91376653 105.21051921 562.98001778 111.58105469 568.95605469 C120.85179224 577.66770388 120.85179224 577.66770388 130.36328125 586.11328125 C134.88826266 590.12387757 139.26658999 594.29689093 143.6796875 598.4296875 C151.71154548 605.95133316 159.80145937 613.40587957 167.99609375 620.75 C172.8827853 625.15322892 177.71986526 629.61093714 182.5625 634.0625 C185.57341443 632.69359974 187.85223509 631.10981372 190.3125 628.90625 C191.00859375 628.28363281 191.7046875 627.66101563 192.421875 627.01953125 C195.83377118 623.9002612 199.20638797 620.74162956 202.5625 617.5625 C207.16006463 613.20738507 211.81157314 608.94663596 216.59375 604.79492188 C219.81855322 601.95722301 222.93695015 599.00853779 226.0625 596.0625 C230.49894394 591.9004416 234.95450229 587.78491181 239.5625 583.8125 C245.46636554 578.64661765 251.18684936 573.26470524 256.94140625 567.93359375 C258.06502316 566.89314168 259.18872043 565.85277639 260.3125 564.8125 C260.86075439 564.30477051 261.40900879 563.79704102 261.97387695 563.27392578 C264.92226919 560.55102773 267.89864253 557.87233454 270.9375 555.25 C274.03683181 552.57212545 276.91231093 549.7336016 279.78125 546.8125 C282.28146185 544.35615151 284.93930516 542.09940632 287.59375 539.8125 C289.49273071 538.12451714 291.28255988 536.37480266 293.0625 534.5625 C297.33643034 530.22010853 301.81426129 526.00017616 306.80078125 522.484375 C307.38214844 522.01515625 307.96351563 521.5459375 308.5625 521.0625 C308.5625 520.4025 308.5625 519.7425 308.5625 519.0625 C309.14515625 518.80855469 309.7278125 518.55460937 310.328125 518.29296875 C312.80438033 516.92929667 314.36770626 515.42024797 316.3125 513.375 C318.83953646 510.78328619 321.37550884 508.29163949 324.125 505.9375 C328.16604292 502.4623625 332.050488 498.83253588 335.9375 495.1875 C340.89034614 490.54481371 345.87958466 485.9537439 350.94140625 481.4296875 C354.34283021 478.35776064 357.70432518 475.24406765 361.0625 472.125 C361.98107788 471.27216431 361.98107788 471.27216431 362.91821289 470.40209961 C365.16132448 468.31527168 367.3959281 466.2290719 369.5625 464.0625 C370.76696776 463.01636603 371.97587995 461.97534187 373.1875 460.9375 C376.0928198 458.40976689 378.86103767 455.8066732 381.5625 453.0625 C384.76279522 449.81220017 388.10474576 446.81525755 391.5625 443.84375 C394.27096663 441.43152191 396.79402645 438.85841903 399.3125 436.25 C401.18755086 434.42703389 403.09533367 432.73954055 405.08203125 431.04296875 C410.75698193 426.11468752 415.97432378 420.72129882 421.25 415.375 C423.27176377 413.32645367 425.29695857 411.28138681 427.32421875 409.23828125 C428.21069092 408.34020752 429.09716309 407.44213379 430.01049805 406.5168457 C432.5625 404.0625 432.5625 404.0625 435.38989258 401.86401367 C436.10685303 401.26951416 436.82381348 400.67501465 437.5625 400.0625 C437.5625 399.4025 437.5625 398.7425 437.5625 398.0625 C438.119375 397.85625 438.67625 397.65 439.25 397.4375 C441.79062201 395.92685988 443.32757497 394.12391825 445.12109375 391.79296875 C447.87967183 388.48117989 451.05401774 385.55711456 454.140625 382.5546875 C459.62934821 377.17830658 464.66462221 371.68638183 469.45703125 365.6640625 C471.37550754 363.2935519 473.36969206 361.05227574 475.4375 358.8125 C485.98099316 347.01879026 494.33860396 333.51841765 502.5625 320.0625 C502.94003418 319.45615723 503.31756836 318.84981445 503.70654297 318.22509766 C530.63861063 274.84789709 540.67465099 219.35766728 529.578125 169.54296875 C527.94921557 162.59159187 525.95617908 155.78759838 523.5625 149.0625 C523.2325 148.0725 522.9025 147.0825 522.5625 146.0625 C516.37716567 131.59390063 509.20497756 118.4901968 499.5625 106.0625 C498.39460937 104.53302734 498.39460937 104.53302734 497.203125 102.97265625 C493.87928782 98.71789475 490.42417684 94.8420135 486.5625 91.0625 C485.44294922 89.96421875 485.44294922 89.96421875 484.30078125 88.84375 C465.21122075 70.89157072 443.49025869 58.82726101 418.5625 51.0625 C417.50289062 50.72476563 416.44328125 50.38703125 415.3515625 50.0390625 C403.77062256 46.60893073 391.58027166 45.62270689 379.5625 45.0625 C378.47324219 45.00835937 377.38398437 44.95421875 376.26171875 44.8984375 C358.72993386 44.46163199 340.21642096 46.48118595 323.5625 52.0625 C322.8514209 52.29420898 322.1403418 52.52591797 321.40771484 52.76464844 C292.69526718 62.22788145 268.02080557 78.94344417 246.89233398 100.39648438 C245.24171808 102.07090134 243.57794863 103.73136623 241.91210938 105.390625 C235.35636133 111.9635939 229.33004178 118.77725917 223.5625 126.0625 C222.41710498 127.45280941 221.26767775 128.83981182 220.11328125 130.22265625 C213.33311851 138.38805776 206.69894233 146.6411208 200.26879883 155.08618164 C191.51060741 166.50466234 191.51060741 166.50466234 185.5625 168.0625 C180.2715285 168.54349741 176.98271011 168.03937619 172.5625 165.0625 C167.23660246 159.89834338 162.82720333 153.89838209 158.34692383 148.00683594 C154.9198788 143.50036021 151.37617127 139.10288414 147.76953125 134.73828125 C146.29725177 132.95330524 144.83627041 131.15895044 143.38671875 129.35546875 C129.65664898 112.30872138 114.18267408 95.15108348 96.5625 82.0625 C95.98838379 81.62309082 95.41426758 81.18368164 94.82275391 80.73095703 C78.14562116 68.02027748 59.66520331 58.10311216 39.5625 52.0625 C38.39589844 51.68738281 37.22929687 51.31226563 36.02734375 50.92578125 C-14.40686079 35.90163837 -70.60128093 48.09828642 -110.4375 82.0625 Z " fill="#010101" transform="translate(328.4375,175.9375)"/>
<path d="M0 0 C0.66 0.33 1.32 0.66 2 1 C-6.25 9.25 -14.5 17.5 -23 26 C-23 23 -23 23 -21.6796875 21.421875 C-20.78636719 20.59429687 -20.78636719 20.59429687 -19.875 19.75 C-17.44217771 17.4293118 -15.19039567 15.10271536 -13.0625 12.5 C-10.24200816 9.13213508 -7.08211943 6.31567091 -3.734375 3.48046875 C-1.91019463 1.96268408 -1.91019463 1.96268408 0 0 Z " fill="#161616" transform="translate(189,223)"/>
<path d="M0 0 C0.99 0 1.98 0 3 0 C2.67 0.66 2.34 1.32 2 2 C1.34 1.34 0.68 0.68 0 0 Z " fill="#292A29" transform="translate(805,200)"/>
<path d="M0 0 C0.99 0.495 0.99 0.495 2 1 C1.01 1.495 1.01 1.495 0 2 C0 1.34 0 0.68 0 0 Z " fill="#232423" transform="translate(576,744)"/>
<path d="M0 0 C3 1 3 1 3 1 Z " fill="#252524" transform="translate(672,659)"/>
<path d="M0 0 C0.33 0.66 0.66 1.32 1 2 C0.34 1.67 -0.32 1.34 -1 1 C-0.67 0.67 -0.34 0.34 0 0 Z " fill="#2B2A29" transform="translate(140,493)"/>
<path d="M0 0 C3 1 3 1 3 1 Z " fill="#282727" transform="translate(685,223)"/>
<path d="M0 0 C3 1 3 1 3 1 Z " fill="#2D2E2C" transform="translate(256,184)"/>
<path d="" fill="#262324" transform="translate(0,0)"/>
<path d="M0 0 C2 1 2 1 2 1 Z " fill="#232322" transform="translate(578,745)"/>
<path d="M0 0 C2 1 2 1 2 1 Z " fill="#272725" transform="translate(312,693)"/>
<path d="" fill="#262625" transform="translate(0,0)"/>
<path d="" fill="#2A2929" transform="translate(0,0)"/>
<path d="" fill="#2B2A29" transform="translate(0,0)"/>
<path d="" fill="#2B2A29" transform="translate(0,0)"/>
<path d="M0 0 C2 1 2 1 2 1 Z " fill="#262625" transform="translate(464,301)"/>
<path d="M0 0 C2 1 2 1 2 1 Z " fill="#272526" transform="translate(833,293)"/>
<path d="" fill="#282726" transform="translate(0,0)"/>
<path d="M0 0 C2 1 2 1 2 1 Z " fill="#262527" transform="translate(717,223)"/>
<path d="M0 0 C2 1 2 1 2 1 Z " fill="#272525" transform="translate(332,223)"/>
<path d="" fill="#2D2C2A" transform="translate(0,0)"/>
<path d="M0 0 C2 1 2 1 2 1 Z " fill="#2E2E2D" transform="translate(745,178)"/>
<path d="M0 0 C2 1 2 1 2 1 Z " fill="#2E2C2B" transform="translate(672,176)"/>
<path d="M0 0 C2 1 2 1 2 1 Z " fill="#2B2C2A" transform="translate(351,176)"/>
<path d="" fill="#5F605F" transform="translate(0,0)"/>
<path d="" fill="#242422" transform="translate(0,0)"/>
<path d="" fill="#272624" transform="translate(0,0)"/>
<path d="" fill="#232423" transform="translate(0,0)"/>
<path d="" fill="#272524" transform="translate(0,0)"/>
<path d="" fill="#262726" transform="translate(0,0)"/>
<path d="" fill="#252323" transform="translate(0,0)"/>
<path d="" fill="#262624" transform="translate(0,0)"/>
<path d="" fill="#1F201F" transform="translate(0,0)"/>
<path d="" fill="#201E21" transform="translate(0,0)"/>
<path d="" fill="#252424" transform="translate(0,0)"/>
<path d="" fill="#222020" transform="translate(0,0)"/>
<path d="" fill="#252624" transform="translate(0,0)"/>
<path d="" fill="#242523" transform="translate(0,0)"/>
<path d="" fill="#242323" transform="translate(0,0)"/>
<path d="" fill="#232120" transform="translate(0,0)"/>
<path d="" fill="#1F201F" transform="translate(0,0)"/>
<path d="" fill="#272724" transform="translate(0,0)"/>
<path d="" fill="#252523" transform="translate(0,0)"/>
<path d="" fill="#212020" transform="translate(0,0)"/>
<path d="" fill="#222422" transform="translate(0,0)"/>
<path d="" fill="#232321" transform="translate(0,0)"/>
<path d="" fill="#222020" transform="translate(0,0)"/>
<path d="" fill="#212321" transform="translate(0,0)"/>
<path d="" fill="#222322" transform="translate(0,0)"/>
<path d="" fill="#252322" transform="translate(0,0)"/>
<path d="" fill="#232323" transform="translate(0,0)"/>
<path d="" fill="#232322" transform="translate(0,0)"/>
<path d="" fill="#22231F" transform="translate(0,0)"/>
<path d="" fill="#252521" transform="translate(0,0)"/>
<path d="" fill="#262625" transform="translate(0,0)"/>
<path d="" fill="#242623" transform="translate(0,0)"/>
<path d="" fill="#272625" transform="translate(0,0)"/>
<path d="" fill="#252522" transform="translate(0,0)"/>
<path d="" fill="#212222" transform="translate(0,0)"/>
<path d="" fill="#212321" transform="translate(0,0)"/>
<path d="" fill="#242522" transform="translate(0,0)"/>
<path d="" fill="#252524" transform="translate(0,0)"/>
<path d="" fill="#232321" transform="translate(0,0)"/>
<path d="" fill="#262625" transform="translate(0,0)"/>
<path d="" fill="#272727" transform="translate(0,0)"/>
<path d="" fill="#272625" transform="translate(0,0)"/>
<path d="" fill="#252524" transform="translate(0,0)"/>
<path d="" fill="#262725" transform="translate(0,0)"/>
<path d="" fill="#252625" transform="translate(0,0)"/>
<path d="" fill="#252425" transform="translate(0,0)"/>
<path d="" fill="#272826" transform="translate(0,0)"/>
<path d="" fill="#272627" transform="translate(0,0)"/>
<path d="" fill="#262424" transform="translate(0,0)"/>
<path d="" fill="#282424" transform="translate(0,0)"/>
<path d="" fill="#272626" transform="translate(0,0)"/>
<path d="" fill="#242422" transform="translate(0,0)"/>
<path d="" fill="#262525" transform="translate(0,0)"/>
<path d="" fill="#262523" transform="translate(0,0)"/>
<path d="" fill="#252625" transform="translate(0,0)"/>
<path d="" fill="#262325" transform="translate(0,0)"/>
<path d="" fill="#262724" transform="translate(0,0)"/>
<path d="" fill="#272926" transform="translate(0,0)"/>
<path d="" fill="#262725" transform="translate(0,0)"/>
<path d="" fill="#292827" transform="translate(0,0)"/>
<path d="" fill="#272624" transform="translate(0,0)"/>
<path d="" fill="#272827" transform="translate(0,0)"/>
<path d="" fill="#282A2A" transform="translate(0,0)"/>
<path d="" fill="#2A2528" transform="translate(0,0)"/>
<path d="" fill="#282525" transform="translate(0,0)"/>
<path d="" fill="#252726" transform="translate(0,0)"/>
<path d="" fill="#282829" transform="translate(0,0)"/>
<path d="" fill="#262624" transform="translate(0,0)"/>
<path d="" fill="#262727" transform="translate(0,0)"/>
<path d="" fill="#202222" transform="translate(0,0)"/>
<path d="" fill="#222223" transform="translate(0,0)"/>
<path d="" fill="#222323" transform="translate(0,0)"/>
<path d="" fill="#272726" transform="translate(0,0)"/>
<path d="" fill="#252626" transform="translate(0,0)"/>
<path d="" fill="#262523" transform="translate(0,0)"/>
<path d="" fill="#262728" transform="translate(0,0)"/>
<path d="" fill="#272625" transform="translate(0,0)"/>
<path d="" fill="#2A2828" transform="translate(0,0)"/>
<path d="" fill="#292826" transform="translate(0,0)"/>
<path d="" fill="#2B2929" transform="translate(0,0)"/>
<path d="" fill="#282927" transform="translate(0,0)"/>
<path d="" fill="#282927" transform="translate(0,0)"/>
<path d="" fill="#2A2829" transform="translate(0,0)"/>
<path d="" fill="#2A2928" transform="translate(0,0)"/>
<path d="" fill="#262424" transform="translate(0,0)"/>
<path d="" fill="#2C2C2D" transform="translate(0,0)"/>
<path d="" fill="#262625" transform="translate(0,0)"/>
<path d="" fill="#2A2A29" transform="translate(0,0)"/>
<path d="" fill="#262425" transform="translate(0,0)"/>
<path d="" fill="#292928" transform="translate(0,0)"/>
<path d="" fill="#29272A" transform="translate(0,0)"/>
<path d="" fill="#292727" transform="translate(0,0)"/>
<path d="" fill="#292928" transform="translate(0,0)"/>
<path d="" fill="#282829" transform="translate(0,0)"/>
<path d="" fill="#292928" transform="translate(0,0)"/>
<path d="" fill="#272827" transform="translate(0,0)"/>
<path d="" fill="#282726" transform="translate(0,0)"/>
<path d="" fill="#575857" transform="translate(0,0)"/>
<path d="" fill="#272727" transform="translate(0,0)"/>
<path d="" fill="#262528" transform="translate(0,0)"/>
<path d="" fill="#292928" transform="translate(0,0)"/>
<path d="" fill="#2C2B2D" transform="translate(0,0)"/>
<path d="" fill="#292A29" transform="translate(0,0)"/>
<path d="" fill="#242623" transform="translate(0,0)"/>
<path d="" fill="#272626" transform="translate(0,0)"/>
<path d="" fill="#2F2D2D" transform="translate(0,0)"/>
<path d="" fill="#262727" transform="translate(0,0)"/>
<path d="" fill="#2D2D2B" transform="translate(0,0)"/>
<path d="" fill="#292929" transform="translate(0,0)"/>
<path d="" fill="#2D2D2A" transform="translate(0,0)"/>
<path d="" fill="#29292B" transform="translate(0,0)"/>
<path d="" fill="#2D2B2C" transform="translate(0,0)"/>
<path d="" fill="#292927" transform="translate(0,0)"/>
<path d="" fill="#2D2B2A" transform="translate(0,0)"/>
<path d="" fill="#28282A" transform="translate(0,0)"/>
<path d="" fill="#262729" transform="translate(0,0)"/>
<path d="" fill="#262525" transform="translate(0,0)"/>
<path d="" fill="#272828" transform="translate(0,0)"/>
<path d="" fill="#292928" transform="translate(0,0)"/>
<path d="" fill="#2B2B27" transform="translate(0,0)"/>
<path d="" fill="#262625" transform="translate(0,0)"/>
<path d="" fill="#272625" transform="translate(0,0)"/>
<path d="" fill="#272425" transform="translate(0,0)"/>
<path d="" fill="#2C2929" transform="translate(0,0)"/>
<path d="" fill="#2B2A29" transform="translate(0,0)"/>
<path d="" fill="#2C2E2C" transform="translate(0,0)"/>
<path d="" fill="#282829" transform="translate(0,0)"/>
<path d="" fill="#272726" transform="translate(0,0)"/>
<path d="" fill="#5D5F5F" transform="translate(0,0)"/>
<path d="" fill="#2D2C2B" transform="translate(0,0)"/>
<path d="" fill="#4F4F4F" transform="translate(0,0)"/>
<path d="" fill="#242523" transform="translate(0,0)"/>
<path d="" fill="#2B292A" transform="translate(0,0)"/>
<path d="" fill="#272827" transform="translate(0,0)"/>
<path d="" fill="#292828" transform="translate(0,0)"/>
<path d="" fill="#282828" transform="translate(0,0)"/>
<path d="" fill="#272626" transform="translate(0,0)"/>
<path d="" fill="#2F2E2A" transform="translate(0,0)"/>
<path d="" fill="#252626" transform="translate(0,0)"/>
<path d="" fill="#292827" transform="translate(0,0)"/>
<path d="" fill="#262522" transform="translate(0,0)"/>
<path d="" fill="#292828" transform="translate(0,0)"/>
<path d="" fill="#272624" transform="translate(0,0)"/>
<path d="" fill="#2A2B28" transform="translate(0,0)"/>
<path d="" fill="#252523" transform="translate(0,0)"/>
<path d="" fill="#2D2D2E" transform="translate(0,0)"/>
<path d="" fill="#252826" transform="translate(0,0)"/>
<path d="" fill="#282829" transform="translate(0,0)"/>
<path d="" fill="#2D2D2F" transform="translate(0,0)"/>
<path d="" fill="#2C2A2C" transform="translate(0,0)"/>
<path d="" fill="#252525" transform="translate(0,0)"/>
<path d="" fill="#2E302D" transform="translate(0,0)"/>
<path d="" fill="#2B2B2B" transform="translate(0,0)"/>
<path d="" fill="#302F2E" transform="translate(0,0)"/>
<path d="" fill="#262726" transform="translate(0,0)"/>
<path d="" fill="#2A292A" transform="translate(0,0)"/>
<path d="" fill="#282827" transform="translate(0,0)"/>
<path d="" fill="#282725" transform="translate(0,0)"/>
<path d="" fill="#272824" transform="translate(0,0)"/>
<path d="" fill="#292929" transform="translate(0,0)"/>
<path d="" fill="#292825" transform="translate(0,0)"/>
<path d="" fill="#282625" transform="translate(0,0)"/>
<path d="" fill="#2E2D2F" transform="translate(0,0)"/>
<path d="" fill="#272726" transform="translate(0,0)"/>
<path d="" fill="#2E2D2D" transform="translate(0,0)"/>
<path d="" fill="#262726" transform="translate(0,0)"/>
<path d="" fill="#272527" transform="translate(0,0)"/>
<path d="" fill="#262726" transform="translate(0,0)"/>
<path d="" fill="#272727" transform="translate(0,0)"/>
<path d="" fill="#272624" transform="translate(0,0)"/>
<path d="" fill="#2D2D2B" transform="translate(0,0)"/>
<path d="" fill="#272626" transform="translate(0,0)"/>
<path d="" fill="#272825" transform="translate(0,0)"/>
<path d="" fill="#262526" transform="translate(0,0)"/>
<path d="" fill="#302F2D" transform="translate(0,0)"/>
<path d="" fill="#2E2E30" transform="translate(0,0)"/>
<path d="" fill="#313130" transform="translate(0,0)"/>
<path d="" fill="#252527" transform="translate(0,0)"/>
<path d="" fill="#272525" transform="translate(0,0)"/>
<path d="" fill="#2F2F2F" transform="translate(0,0)"/>
<path d="" fill="#232324" transform="translate(0,0)"/>
<path d="" fill="#2D2F2B" transform="translate(0,0)"/>
<path d="" fill="#262625" transform="translate(0,0)"/>
<path d="" fill="#2A2929" transform="translate(0,0)"/>
<path d="" fill="#282928" transform="translate(0,0)"/>
<path d="" fill="#292827" transform="translate(0,0)"/>
<path d="" fill="#282628" transform="translate(0,0)"/>
<path d="" fill="#232121" transform="translate(0,0)"/>
<path d="" fill="#262625" transform="translate(0,0)"/>
<path d="" fill="#2A2825" transform="translate(0,0)"/>
<path d="" fill="#292A28" transform="translate(0,0)"/>
<path d="" fill="#2F302F" transform="translate(0,0)"/>
<path d="" fill="#282929" transform="translate(0,0)"/>
<path d="" fill="#262324" transform="translate(0,0)"/>
<path d="" fill="#282929" transform="translate(0,0)"/>
<path d="" fill="#252522" transform="translate(0,0)"/>
<path d="" fill="#242225" transform="translate(0,0)"/>
<path d="" fill="#272225" transform="translate(0,0)"/>
<path d="" fill="#2C2E2B" transform="translate(0,0)"/>
<path d="" fill="#28272A" transform="translate(0,0)"/>
<path d="" fill="#292A29" transform="translate(0,0)"/>
<path d="" fill="#2C2B2C" transform="translate(0,0)"/>
<path d="" fill="#292826" transform="translate(0,0)"/>
<path d="" fill="#252425" transform="translate(0,0)"/>
<path d="" fill="#29282A" transform="translate(0,0)"/>
<path d="" fill="#272827" transform="translate(0,0)"/>
<path d="" fill="#272526" transform="translate(0,0)"/>
<path d="" fill="#292625" transform="translate(0,0)"/>
<path d="" fill="#262827" transform="translate(0,0)"/>
<path d="" fill="#272624" transform="translate(0,0)"/>
<path d="" fill="#2C2B2C" transform="translate(0,0)"/>
<path d="" fill="#2B2828" transform="translate(0,0)"/>
<path d="" fill="#2E2D2E" transform="translate(0,0)"/>
<path d="" fill="#2A2C29" transform="translate(0,0)"/>
<path d="" fill="#292A28" transform="translate(0,0)"/>
<path d="" fill="#2E2E2C" transform="translate(0,0)"/>
<path d="" fill="#302F2E" transform="translate(0,0)"/>
<path d="" fill="#2C2E2A" transform="translate(0,0)"/>
<path d="" fill="#2B2D2D" transform="translate(0,0)"/>
<path d="" fill="#2F2F2F" transform="translate(0,0)"/>
<path d="" fill="#2F302E" transform="translate(0,0)"/>
<path d="" fill="#2C2D2A" transform="translate(0,0)"/>
<path d="" fill="#282927" transform="translate(0,0)"/>
<path d="" fill="#2F2F2D" transform="translate(0,0)"/>
<path d="" fill="#31302F" transform="translate(0,0)"/>
<path d="" fill="#2B292A" transform="translate(0,0)"/>
<path d="" fill="#2B2B2B" transform="translate(0,0)"/>
<path d="" fill="#2C2B2B" transform="translate(0,0)"/>
<path d="" fill="#2B2A29" transform="translate(0,0)"/>
<path d="" fill="#282729" transform="translate(0,0)"/>
<path d="" fill="#2D2D2B" transform="translate(0,0)"/>
<path d="" fill="#303130" transform="translate(0,0)"/>
<path d="" fill="#2E2C2B" transform="translate(0,0)"/>
<path d="" fill="#2D2B2B" transform="translate(0,0)"/>
<path d="" fill="#2F3131" transform="translate(0,0)"/>
<path d="" fill="#2E2D2D" transform="translate(0,0)"/>
<path d="" fill="#31302F" transform="translate(0,0)"/>
<path d="" fill="#2B2C2C" transform="translate(0,0)"/>
<path d="" fill="#2D2C2B" transform="translate(0,0)"/>
<path d="" fill="#30302F" transform="translate(0,0)"/>
<path d="" fill="#303130" transform="translate(0,0)"/>
<path d="" fill="#2C2B2A" transform="translate(0,0)"/>
<path d="" fill="#312E2E" transform="translate(0,0)"/>
<path d="" fill="#292A2B" transform="translate(0,0)"/>
<path d="" fill="#2D2B2C" transform="translate(0,0)"/>
</svg>
