<?xml version="1.0" standalone="no"?>
<!DOCTYPE svg PUBLIC "-//W3C//DTD SVG 20010904//EN"
 "http://www.w3.org/TR/2001/REC-SVG-20010904/DTD/svg10.dtd">
<svg version="1.0" xmlns="http://www.w3.org/2000/svg"
 width="1024.000000pt" height="1024.000000pt" viewBox="0 0 1024.000000 1024.000000"
 preserveAspectRatio="xMidYMid meet">

<g transform="translate(0.000000,1024.000000) scale(0.100000,-0.100000)"
fill="#000000" stroke="none">
<path d="M2480 7210 c-38 -13 -68 -33 -101 -68 -70 -72 -79 -113 -79 -349 l0
-193 -309 0 c-260 0 -317 -3 -360 -17 -66 -21 -123 -70 -155 -135 l-26 -52 0
-1282 c0 -1422 -5 -1315 68 -1396 20 -23 60 -52 87 -64 49 -23 56 -24 372 -24
l321 0 4 -207 c3 -203 4 -209 30 -259 29 -56 68 -93 132 -127 40 -21 52 -22
415 -25 437 -3 442 -3 527 83 87 87 84 58 84 812 l0 653 1625 0 1625 0 0 -653
c0 -755 -3 -725 84 -813 83 -82 94 -84 515 -84 212 0 371 4 393 10 62 18 128
71 162 130 l31 55 3 212 3 212 337 3 337 3 51 27 c29 15 66 44 83 65 64 77 62
11 59 1409 l-3 1269 -22 41 c-31 59 -106 121 -166 139 -40 12 -115 15 -364 15
l-313 0 0 198 c0 108 -5 214 -10 234 -18 63 -70 129 -130 162 l-55 31 -373 3
c-443 4 -453 2 -537 -82 -88 -88 -85 -59 -85 -803 l0 -643 -1625 0 -1624 0 -3
668 c-3 662 -3 667 -25 707 -12 23 -42 60 -66 82 -76 70 -98 73 -506 73 -323
-1 -361 -2 -411 -20z m676 -314 c19 -14 19 -45 22 -1767 2 -1560 0 -1755 -13
-1776 l-15 -23 -247 0 c-215 0 -249 2 -265 17 -17 15 -18 84 -18 1771 0 1619
1 1757 17 1774 15 16 36 18 258 18 192 0 245 -3 261 -14z m4447 2 c16 -12 17
-134 17 -1778 1 -1661 0 -1765 -17 -1777 -12 -10 -82 -13 -270 -13 -239 0
-253 1 -263 19 -7 13 -10 584 -10 1775 0 1582 2 1756 16 1770 13 14 51 16 263
16 182 0 252 -3 264 -12z m-5303 -1783 l0 -1165 -252 0 c-220 0 -254 2 -270
17 -17 15 -18 64 -18 1149 l0 1133 22 15 c19 14 62 16 270 16 l248 0 0 -1165z
m6168 1149 l22 -15 0 -1131 c0 -1039 -1 -1133 -17 -1150 -15 -17 -37 -18 -280
-18 l-263 0 0 1165 0 1165 258 0 c217 0 261 -2 280 -16z m-1728 -1134 l0 -250
-1625 0 -1625 0 0 250 0 250 1625 0 1625 0 0 -250z"/>
</g>
</svg>
