<?xml version="1.0" standalone="no"?>
<!DOCTYPE svg PUBLIC "-//W3C//DTD SVG 20010904//EN"
 "http://www.w3.org/TR/2001/REC-SVG-20010904/DTD/svg10.dtd">
<svg version="1.0" xmlns="http://www.w3.org/2000/svg"
 width="1024.000000pt" height="1024.000000pt" viewBox="0 0 1024.000000 1024.000000"
 preserveAspectRatio="xMidYMid meet">

<g transform="translate(0.000000,1024.000000) scale(0.100000,-0.100000)"
fill="#000000" stroke="none">
<path d="M7593 8819 c-109 -19 -173 -97 -173 -208 0 -77 42 -148 109 -183 157
-82 328 38 307 215 -14 119 -122 197 -243 176z"/>
<path d="M3812 8810 c-133 -20 -296 -139 -356 -261 -53 -109 -56 -136 -56
-510 0 -383 4 -412 63 -491 21 -28 53 -54 92 -73 l60 -30 323 -3 322 -3 0
-165 0 -164 -173 0 c-194 0 -243 -9 -305 -58 -21 -17 -51 -54 -68 -84 l-29
-53 -3 -291 -3 -291 -65 -18 c-84 -23 -212 -84 -289 -139 -73 -53 -197 -181
-246 -256 -78 -118 -128 -251 -149 -395 -8 -58 -10 -553 -8 -1800 l3 -1720 27
-98 c74 -268 254 -478 498 -584 169 -73 68 -68 1415 -68 1377 0 1251 -8 1450
90 236 116 397 311 467 565 l23 85 0 1770 0 1770 -23 89 c-80 317 -318 571
-637 682 l-90 31 -5 294 -5 294 -27 47 c-16 25 -45 60 -65 77 -64 52 -107 61
-305 61 l-178 0 0 164 0 165 223 3 c219 3 223 3 273 30 29 15 68 46 87 69 66
77 67 83 67 570 0 419 -1 441 -21 494 -38 102 -139 182 -258 205 -63 12 -1947
12 -2029 0z m1918 -685 l0 -275 -965 0 -965 0 0 226 c0 209 2 229 20 259 42
68 -13 65 998 65 l912 0 0 -275z m-660 -850 l0 -165 -205 0 c-157 0 -205 3
-206 13 0 6 -3 81 -5 165 l-5 152 211 0 210 0 0 -165z m580 -752 l0 -178 -785
3 -785 2 0 175 0 175 785 0 785 0 0 -177z m385 -616 c173 -69 287 -191 353
-376 15 -42 17 -202 19 -1734 4 -1824 5 -1753 -48 -1860 -59 -117 -170 -213
-299 -259 l-65 -23 -1113 -3 c-1217 -3 -1168 -5 -1286 55 -67 34 -184 154
-219 223 -60 122 -58 43 -55 1873 l3 1672 23 70 c31 91 64 148 126 214 83 88
203 155 316 174 14 3 509 4 1100 3 l1075 -1 70 -28z"/>
<path d="M6760 8509 c-81 -32 -129 -107 -130 -198 -1 -190 222 -282 356 -147
135 134 38 358 -153 355 -26 0 -59 -5 -73 -10z"/>
<path d="M6769 7856 c-92 -33 -139 -100 -139 -200 0 -131 111 -230 235 -211
168 25 242 230 129 355 -56 62 -147 84 -225 56z"/>
<path d="M7530 7548 c-26 -14 -57 -41 -75 -66 -27 -40 -30 -51 -30 -122 0 -72
3 -82 31 -121 131 -180 407 -67 380 156 -16 139 -175 219 -306 153z"/>
</g>
</svg>
