<?xml version="1.0" standalone="no"?>
<!DOCTYPE svg PUBLIC "-//W3C//DTD SVG 20010904//EN"
 "http://www.w3.org/TR/2001/REC-SVG-20010904/DTD/svg10.dtd">
<svg version="1.0" xmlns="http://www.w3.org/2000/svg"
 width="1024.000000pt" height="1024.000000pt" viewBox="0 0 1024.000000 1024.000000"
 preserveAspectRatio="xMidYMid meet">

<g transform="translate(0.000000,1024.000000) scale(0.100000,-0.100000)"
fill="currentColor" stroke="none">
<path d="M3458 9431 c-94 -19 -120 -61 -207 -344 -327 -1062 -445 -2102 -311
-2753 114 -551 339 -983 702 -1345 210 -209 393 -342 633 -460 198 -97 353
-146 625 -196 l45 -8 0 -1267 0 -1266 -24 -26 c-30 -32 -68 -42 -186 -51 -279
-20 -586 -61 -787 -105 -322 -72 -527 -177 -602 -310 -27 -48 -31 -65 -31
-130 0 -63 4 -82 27 -120 59 -101 172 -178 325 -222 l78 -23 1365 0 1365 0 80
23 c161 47 275 123 328 220 37 68 43 125 22 197 -14 49 -28 70 -83 125 -41 40
-94 80 -137 102 -222 115 -605 195 -1154 243 -177 15 -209 24 -230 62 -5 11
-12 535 -16 1285 l-8 1266 49 7 c341 47 693 197 996 422 126 94 345 306 451
438 365 453 551 993 583 1695 11 248 -24 674 -86 1044 -92 543 -307 1341 -388
1438 -57 68 77 63 -1742 64 -905 1 -1661 -2 -1682 -5z m3170 -376 c40 -87 177
-587 236 -860 77 -354 146 -881 146 -1117 l0 -38 -1890 0 -1890 0 0 28 c0 15
5 90 10 167 29 392 92 781 195 1210 46 190 145 542 170 601 l14 34 1499 0
1499 0 11 -25z m372 -2377 c0 -53 -37 -263 -69 -393 -60 -242 -160 -487 -274
-672 -313 -504 -853 -875 -1360 -934 -126 -14 -365 -6 -467 16 -482 106 -916
416 -1213 865 -199 302 -323 659 -382 1103 l-6 47 1885 0 1886 0 0 -32z
m-1370 -5292 c383 -42 643 -94 862 -172 40 -14 77 -30 81 -34 10 -9 -62 -27
-163 -40 -106 -13 -2500 -13 -2610 1 -47 5 -108 16 -135 23 l-50 12 84 33
c221 85 607 155 1051 190 171 14 709 6 880 -13z"/>
</g>
</svg>
