<?xml version="1.0" standalone="no"?>
<!DOCTYPE svg PUBLIC "-//W3C//DTD SVG 20010904//EN"
 "http://www.w3.org/TR/2001/REC-SVG-20010904/DTD/svg10.dtd">
<svg version="1.0" xmlns="http://www.w3.org/2000/svg"
 width="1024.000000pt" height="1024.000000pt" viewBox="0 0 1024.000000 1024.000000"
 preserveAspectRatio="xMidYMid meet">

<g transform="translate(0.000000,1024.000000) scale(0.100000,-0.100000)"
fill="currentColor" stroke="none">
<path d="M5027 9245 c-68 -26 -93 -52 -290 -298 -402 -504 -920 -1200 -1218
-1637 -205 -301 -263 -387 -399 -600 -829 -1298 -1113 -2229 -959 -3145 104
-618 403 -1182 875 -1650 479 -475 1003 -734 1704 -842 143 -22 593 -25 740
-5 795 107 1489 514 2016 1182 292 370 480 781 574 1250 40 200 52 324 52 540
0 614 -173 1206 -570 1955 -401 755 -993 1609 -1999 2885 -285 361 -296 371
-416 376 -46 3 -85 -1 -110 -11z m349 -980 c578 -724 887 -1141 1245 -1679
517 -776 829 -1407 958 -1935 56 -230 66 -313 66 -591 0 -286 -12 -375 -82
-625 -148 -533 -485 -1025 -933 -1364 -780 -590 -1763 -684 -2620 -250 -349
176 -659 436 -894 748 -125 167 -187 268 -276 453 -229 476 -294 981 -194
1499 102 527 341 1062 797 1784 316 500 688 1014 1197 1655 424 534 485 609
491 607 3 -1 114 -137 245 -302z"/>
</g>
</svg>
