<?xml version="1.0" standalone="no"?>
<!DOCTYPE svg PUBLIC "-//W3C//DTD SVG 20010904//EN"
 "http://www.w3.org/TR/2001/REC-SVG-20010904/DTD/svg10.dtd">
<svg version="1.0" xmlns="http://www.w3.org/2000/svg"
 width="1024.000000pt" height="1024.000000pt" viewBox="0 0 1024.000000 1024.000000"
 preserveAspectRatio="xMidYMid meet">

<g transform="translate(0.000000,1024.000000) scale(0.100000,-0.100000)"
fill="currentColor" stroke="none">
<path d="M5041 9078 c-19 -12 -44 -36 -55 -51 -21 -28 -21 -36 -24 -735 -2
-511 1 -715 9 -734 6 -15 29 -44 50 -63 35 -32 45 -35 98 -35 67 0 113 25 143
76 17 30 18 71 18 739 0 781 2 751 -63 797 -47 34 -132 37 -176 6z"/>
<path d="M2410 7977 c-88 -46 -114 -160 -57 -246 38 -58 922 -923 969 -948 51
-28 89 -29 144 -2 67 32 103 103 89 177 -6 32 -66 97 -493 526 -278 278 -501
494 -519 502 -46 20 -83 17 -133 -9z"/>
<path d="M7700 7985 c-40 -18 -972 -943 -997 -989 -46 -87 6 -197 107 -227 89
-27 70 -42 604 489 279 278 494 501 502 519 29 67 4 150 -57 194 -40 28 -112
35 -159 14z"/>
<path d="M4809 7155 c-822 -129 -1497 -777 -1664 -1600 -64 -318 -56 -610 26
-923 124 -471 435 -906 841 -1172 320 -211 653 -315 1045 -327 433 -13 766 75
1125 298 627 389 1015 1136 958 1846 -59 736 -473 1353 -1130 1684 -197 100
-400 163 -619 193 -137 20 -459 20 -582 1z m601 -340 c280 -50 557 -178 781
-361 84 -68 220 -210 283 -294 326 -437 420 -1017 250 -1549 -36 -112 -154
-342 -231 -451 -83 -116 -249 -286 -361 -368 -580 -428 -1357 -444 -1963 -41
-136 91 -344 301 -438 443 -209 315 -300 639 -288 1021 12 373 123 685 345
970 280 361 649 577 1090 640 125 18 402 13 532 -10z"/>
<path d="M1315 5316 c-17 -7 -43 -28 -58 -45 -67 -80 -51 -190 37 -255 27 -21
38 -21 712 -24 758 -3 728 -5 780 63 40 53 46 145 12 194 -12 19 -36 44 -51
55 -28 21 -36 21 -715 23 -556 2 -693 0 -717 -11z"/>
<path d="M7540 5323 c-61 -24 -109 -95 -110 -164 0 -56 39 -119 90 -146 l43
-23 671 0 c633 0 673 2 712 19 59 27 87 72 92 146 3 50 0 65 -20 94 -12 19
-36 44 -51 55 -28 21 -35 21 -720 23 -381 1 -699 -1 -707 -4z"/>
<path d="M3315 3521 c-16 -10 -242 -232 -502 -492 -507 -510 -505 -507 -489
-593 21 -110 161 -164 252 -97 21 16 249 240 506 497 409 411 467 474 473 507
14 76 -20 148 -86 182 -40 21 -118 19 -154 -4z"/>
<path d="M6790 3533 c-70 -27 -116 -106 -105 -182 6 -45 17 -57 473 -514 257
-257 487 -481 511 -498 125 -83 286 19 256 163 -6 27 -102 128 -493 522 -278
278 -501 494 -519 502 -32 14 -95 17 -123 7z"/>
<path d="M5060 2839 c-14 -5 -36 -20 -48 -32 -54 -50 -52 -25 -52 -753 0 -657
1 -679 20 -719 51 -106 210 -114 278 -15 l22 33 0 689 c0 764 3 731 -65 777
-40 27 -116 37 -155 20z"/>
</g>
</svg>
