<?xml version="1.0" standalone="no"?>
<!DOCTYPE svg PUBLIC "-//W3C//DTD SVG 20010904//EN"
 "http://www.w3.org/TR/2001/REC-SVG-20010904/DTD/svg10.dtd">
<svg version="1.0" xmlns="http://www.w3.org/2000/svg"
 width="1024.000000pt" height="1024.000000pt" viewBox="0 0 1024.000000 1024.000000"
 preserveAspectRatio="xMidYMid meet">

<g transform="translate(0.000000,1024.000000) scale(0.100000,-0.100000)"
fill="currentColor" stroke="none">
<path d="M4625 8103 c-52 -7 -536 -100 -1105 -213 -432 -86 -864 -168 -1130
-215 -239 -42 -277 -52 -373 -99 -228 -110 -353 -349 -326 -619 10 -101 36
-176 90 -256 84 -126 233 -224 389 -257 89 -19 239 -16 705 15 165 11 417 27
560 35 143 9 350 21 460 28 110 7 244 13 297 13 l97 0 37 -35 c55 -53 244
-292 251 -318 8 -32 -17 -64 -99 -125 -40 -30 -127 -96 -193 -147 -66 -51
-172 -132 -235 -180 -63 -48 -239 -183 -390 -299 -733 -563 -843 -648 -874
-669 -33 -23 -36 -23 -137 -11 -255 29 -466 -13 -774 -155 -140 -64 -234 -86
-365 -86 -88 0 -124 5 -196 27 -119 36 -180 40 -221 14 -47 -29 -67 -75 -68
-151 0 -117 63 -189 200 -229 95 -28 254 -44 345 -36 185 16 250 34 449 125
377 171 593 168 1001 -13 341 -152 514 -186 770 -153 160 21 279 58 484 151
272 123 442 162 665 152 178 -7 312 -42 536 -137 248 -105 346 -138 500 -166
80 -15 144 -19 315 -18 320 2 476 34 789 164 174 72 332 122 441 139 98 16
319 14 406 -5 93 -19 195 -56 337 -123 141 -66 241 -97 364 -112 87 -11 120
-10 230 3 156 20 219 39 275 81 108 83 124 232 34 316 -40 38 -112 40 -216 6
-64 -21 -112 -29 -196 -33 -142 -6 -219 13 -441 109 -192 82 -310 115 -475
131 -149 14 -330 0 -473 -38 -160 -42 -155 -42 -155 -3 0 97 -94 523 -150 684
-66 184 -106 251 -299 495 -63 80 -313 406 -555 725 -419 553 -729 957 -878
1147 -208 264 -438 376 -703 341z m198 -399 c112 -29 148 -64 398 -384 80
-102 264 -340 409 -530 145 -190 304 -397 352 -460 205 -267 597 -790 635
-845 111 -165 185 -383 239 -704 36 -216 38 -203 -48 -239 -195 -80 -439 -119
-641 -101 -153 13 -306 56 -542 152 -348 141 -482 172 -750 172 -136 0 -201
-4 -265 -18 -124 -26 -297 -86 -446 -155 -269 -123 -416 -156 -607 -134 -122
13 -377 95 -377 120 0 5 69 62 153 128 83 65 249 195 367 289 118 94 346 273
505 397 845 660 800 619 800 733 -1 97 -20 127 -318 510 -131 167 -179 219
-232 250 -52 31 -141 46 -229 40 -39 -3 -177 -10 -306 -15 -129 -6 -352 -17
-495 -26 -1070 -60 -1162 -63 -1242 -39 -97 29 -145 94 -145 195 0 74 22 119
75 157 67 48 68 48 677 159 159 29 512 97 1030 199 389 77 712 137 815 153 90
14 121 14 188 -4z"/>
<path d="M7461 7879 c-116 -14 -216 -45 -336 -104 -281 -138 -497 -406 -581
-720 -35 -134 -44 -357 -20 -488 49 -260 192 -511 375 -661 138 -113 291 -192
461 -237 73 -20 109 -23 260 -23 158 0 185 3 273 27 107 29 254 94 344 153 83
55 233 203 291 287 126 183 186 369 198 607 7 141 -7 250 -52 391 -129 410
-511 720 -947 768 -108 12 -159 12 -266 0z m314 -376 c250 -56 474 -253 555
-489 33 -95 41 -142 41 -249 -1 -347 -235 -649 -575 -742 -77 -21 -269 -23
-346 -4 -215 53 -406 207 -509 408 -74 145 -101 352 -67 509 37 169 148 342
282 441 84 61 128 84 219 113 131 41 258 45 400 13z"/>
<path d="M4656 3774 c-160 -21 -281 -58 -492 -148 -263 -112 -346 -136 -499
-143 -195 -9 -310 18 -576 132 -266 115 -373 140 -609 140 -233 0 -295 -15
-563 -134 -276 -122 -397 -135 -641 -64 -114 32 -168 28 -208 -16 -65 -73 -58
-198 16 -279 80 -89 371 -143 603 -111 121 16 185 36 365 116 213 94 287 113
434 113 157 0 264 -25 427 -99 123 -55 256 -101 375 -128 106 -24 136 -27 327
-27 282 -1 381 21 657 143 267 118 349 136 618 135 190 -1 212 -3 305 -28 55
-15 184 -61 287 -102 102 -41 222 -85 266 -99 429 -128 929 -106 1333 60 348
142 407 157 609 157 199 0 284 -21 558 -142 243 -106 463 -132 702 -84 137 28
211 73 250 151 67 134 -12 273 -149 261 -25 -3 -90 -17 -145 -31 -196 -53
-319 -34 -607 96 -211 96 -344 122 -609 121 -187 0 -215 -2 -319 -27 -67 -16
-181 -54 -275 -93 -367 -152 -519 -188 -776 -188 -235 1 -392 35 -635 137
-208 87 -312 123 -435 151 -214 47 -402 57 -594 30z"/>
<path d="M4645 2791 c-144 -26 -239 -55 -388 -118 -330 -139 -395 -155 -597
-155 -202 0 -260 15 -623 162 -71 28 -172 63 -225 78 -91 24 -111 26 -317 26
-205 0 -226 -2 -315 -26 -52 -14 -138 -45 -190 -68 -366 -161 -468 -178 -685
-115 -50 15 -110 29 -135 31 -94 10 -155 -58 -154 -171 1 -152 119 -236 373
-265 200 -24 375 14 630 135 228 108 277 120 486 120 200 0 221 -5 475 -115
285 -124 420 -155 675 -154 258 0 406 34 689 159 243 107 351 130 601 130 163
0 190 -3 289 -28 60 -15 188 -61 285 -101 315 -133 452 -164 746 -173 368 -10
597 34 940 181 198 84 291 107 470 113 236 8 324 -11 582 -131 78 -36 184 -78
235 -92 171 -46 397 -42 561 12 109 36 193 168 168 262 -13 48 -43 87 -81 107
-36 19 -113 19 -165 0 -62 -23 -162 -45 -204 -45 -92 0 -212 31 -353 91 -251
107 -332 131 -507 155 -138 18 -245 18 -380 -1 -163 -23 -245 -47 -463 -135
-339 -137 -460 -164 -738 -164 -266 0 -383 25 -706 155 -303 121 -431 150
-699 155 -144 3 -200 0 -280 -15z"/>
</g>
</svg>
