<?xml version="1.0" standalone="no"?>
<!DOCTYPE svg PUBLIC "-//W3C//DTD SVG 20010904//EN"
 "http://www.w3.org/TR/2001/REC-SVG-20010904/DTD/svg10.dtd">
<svg version="1.0" xmlns="http://www.w3.org/2000/svg"
 width="1024.000000pt" height="1024.000000pt" viewBox="0 0 1024.000000 1024.000000"
 preserveAspectRatio="xMidYMid meet">

<g transform="translate(0.000000,1024.000000) scale(0.100000,-0.100000)"
fill="currentColor" stroke="none">
<path d="M7425 9234 c-429 -78 -801 -385 -944 -781 -74 -202 -96 -464 -57
-666 96 -500 494 -896 997 -992 104 -19 320 -20 430 0 467 82 863 453 986 923
35 135 44 376 18 519 -91 508 -497 910 -1009 998 -110 19 -313 18 -421 -1z
m415 -454 c220 -62 397 -212 500 -425 59 -123 81 -218 81 -350 -1 -397 -298
-727 -699 -775 -566 -69 -1013 492 -828 1038 46 135 93 210 196 312 126 127
243 188 418 220 74 14 248 3 332 -20z"/>
<path d="M5115 8499 c-106 -16 -162 -38 -513 -203 -1813 -854 -2075 -978
-2197 -1045 -238 -131 -448 -350 -572 -595 -44 -87 -97 -247 -120 -363 -24
-123 -24 -386 0 -503 44 -206 86 -292 565 -1135 641 -1130 598 -1045 589
-1178 -5 -74 -211 -1228 -288 -1617 -43 -213 -49 -372 -20 -495 56 -235 201
-414 417 -516 260 -123 640 -116 871 17 174 100 316 275 384 473 19 55 109
471 303 1396 137 653 154 743 162 850 12 163 -30 383 -98 519 -27 54 -441 782
-672 1180 -47 82 -85 150 -84 152 2 1 102 49 223 107 121 58 364 175 539 261
176 86 321 155 322 153 2 -2 -46 -142 -107 -311 -134 -376 -140 -396 -146
-521 -9 -179 27 -282 203 -580 71 -121 309 -530 532 -915 52 -91 113 -191 135
-224 85 -127 214 -225 352 -269 59 -18 93 -22 210 -22 126 0 147 3 212 26 356
130 532 541 374 874 -15 33 -135 245 -267 470 -390 671 -364 623 -353 653 6
15 72 196 146 402 323 897 323 898 323 1099 0 266 -80 531 -282 935 -85 171
-183 345 -251 446 -192 288 -419 446 -687 479 -95 12 -120 12 -205 0z m216
-465 c115 -34 205 -115 324 -294 79 -119 281 -516 353 -695 103 -255 116 -435
47 -640 -27 -80 -185 -519 -335 -930 -87 -238 -103 -291 -108 -355 l-4 -76 54
-104 c30 -58 104 -190 165 -295 517 -887 477 -815 481 -880 7 -119 -71 -205
-192 -213 -35 -2 -79 1 -98 7 -75 25 -102 65 -503 761 -65 113 -172 297 -238
410 -163 278 -161 272 -154 389 4 91 10 111 104 371 215 593 296 835 301 891
11 142 -79 243 -214 242 -57 0 -77 -7 -191 -63 -222 -109 -1443 -700 -1573
-762 -156 -75 -186 -97 -217 -165 -21 -45 -24 -66 -21 -117 4 -70 0 -62 549
-1016 151 -261 293 -513 316 -560 61 -121 76 -191 70 -320 -5 -106 -20 -184
-257 -1310 -45 -212 -101 -482 -126 -600 -29 -138 -55 -237 -74 -277 -75 -163
-225 -241 -440 -230 -52 3 -118 12 -145 22 -103 34 -190 123 -216 219 -22 80
-12 159 69 576 284 1455 287 1471 259 1618 -19 98 -49 167 -137 322 -37 63
-120 210 -185 325 -65 116 -164 291 -220 390 -545 962 -578 1024 -612 1145
-28 101 -25 358 5 463 63 221 200 411 383 533 72 48 495 253 1309 634 261 122
639 300 840 395 201 96 390 180 420 188 73 20 145 20 211 1z"/>
</g>
</svg>
